#Comment line ignore any data following # character 
#Hierarchical Translation and Rotation (.htr) file 
[Header]	
#Header keywords are followed by a single value 
FileType HTR		#Single word string
DataType HTRS		#Translation followed by rotation and scale data
FileVersion 1		#integer
NumSegments 84		#integer
NumFrames 2		#integer
DataFrameRate 30		#integer, data frame rate in this file
EulerRotationOrder ZYX
CalibrationUnits mm
RotationUnits Degrees
GlobalAxisofGravity Y
BoneLengthAxis Y
ScaleFactor 1.00
[SegmentNames&Hierarchy]
#CHILD	PARENT
MASTER GLOBAL
root MASTER
chest root
L_mid_tent01 root
R_mid_tent01 root
spine01 root
Bip01_Neck chest
L_humerus chest
R_humerus chest
weapon_bone chest
Bip01_Head Bip01_Neck
eye_left_bone Bip01_Head
eye_right_bone Bip01_Head
L_forearm L_humerus
L_front_hand L_forearm
L_weapon_bone L_forearm
L_front_hand01_01 L_front_hand
L_front_hand02_01 L_front_hand
L_front_hand03_01 L_front_hand
L_front_hand01_02 L_front_hand01_01
L_front_hand02_02 L_front_hand02_01
L_front_hand03_02 L_front_hand03_01
R_forearm R_humerus
R_front_hand R_forearm
R_weapon_bone R_forearm
R_front_hand01_01 R_front_hand
R_front_hand02_01 R_front_hand
R_front_hand03_01 R_front_hand
R_front_hand01_02 R_front_hand01_01
R_front_hand02_02 R_front_hand02_01
R_front_hand03_02 R_front_hand03_01
null_rope01_connect L_mid_tent01
Rope1_Seg01 null_rope01_connect
Rope1_Seg02 Rope1_Seg01
Rope1_Seg03 Rope1_Seg02
Rope1_Seg04 Rope1_Seg03
Rope1_Seg05 Rope1_Seg04
Rope1_Seg06 Rope1_Seg05
Rope1_Seg07 Rope1_Seg06
Rope1_Seg09 Rope1_Seg07
L_mid_hand01 Rope1_Seg09
L_mid_hand02 Rope1_Seg09
L_mid_hand03 Rope1_Seg09
null_rope02_connect R_mid_tent01
Rope2_Seg01 null_rope02_connect
Rope2_Seg02 Rope2_Seg01
Rope2_Seg03 Rope2_Seg02
Rope2_Seg04 Rope2_Seg03
Rope2_Seg05 Rope2_Seg04
Rope2_Seg06 Rope2_Seg05
Rope2_Seg07 Rope2_Seg06
Rope2_Seg09 Rope2_Seg07
R_mid_hand01 Rope2_Seg09
R_mid_hand02 Rope2_Seg09
R_mid_hand03 Rope2_Seg09
spine02 spine01
spine03 spine02
pelvis spine03
null_rope03_connect pelvis
null_rope04_connect pelvis
Rope3_Seg01 null_rope03_connect
Rope3_Seg02 Rope3_Seg01
Rope3_Seg03 Rope3_Seg02
Rope3_Seg04 Rope3_Seg03
Rope3_Seg05 Rope3_Seg04
Rope3_Seg06 Rope3_Seg05
Rope3_Seg07 Rope3_Seg06
Rope3_Seg08 Rope3_Seg07
Rope3_Seg09 Rope3_Seg08
R_rear_hand01 Rope3_Seg09
R_rear_hand02 Rope3_Seg09
R_rear_hand03 Rope3_Seg09
Rope4_Seg01 null_rope04_connect
Rope4_Seg02 Rope4_Seg01
Rope4_Seg03 Rope4_Seg02
Rope4_Seg04 Rope4_Seg03
Rope4_Seg05 Rope4_Seg04
Rope4_Seg06 Rope4_Seg05
Rope4_Seg07 Rope4_Seg06
Rope4_Seg08 Rope4_Seg07
Rope4_Seg09 Rope4_Seg08
L_rear_hand01 Rope4_Seg09
L_rear_hand02 Rope4_Seg09
L_rear_hand03 Rope4_Seg09
[BasePosition]
#SegmentName Tx, Ty, Tz, Rx, Ry, Rz, BoneLength
MASTER 0.000000 0.000000 0.000000 -90.000000 0.000000 0.000000 10.000000 
root 0.000000 0.000000 0.000000 0.000000 0.000000 0.000000 10.000000 
chest 0.000000 0.000000 0.000000 0.000000 0.000000 0.000000 10.000000 
L_mid_tent01 0.000000 0.000000 0.000000 0.000000 0.000000 0.000000 10.000000 
R_mid_tent01 0.000000 0.000000 0.000000 0.000000 0.000000 0.000000 10.000000 
spine01 0.000000 0.000000 0.000000 0.000000 0.000000 0.000000 10.000000 
Bip01_Neck 0.000000 0.000000 0.000000 0.000000 0.000000 0.000000 10.000000 
L_humerus 0.000000 0.000000 0.000000 0.000000 0.000000 0.000000 10.000000 
R_humerus 0.000000 0.000000 0.000000 0.000000 0.000000 0.000000 10.000000 
weapon_bone 0.000000 0.000000 0.000000 0.000000 0.000000 0.000000 10.000000 
Bip01_Head 0.000000 0.000000 0.000000 0.000000 0.000000 0.000000 10.000000 
eye_left_bone 0.000000 0.000000 0.000000 0.000000 0.000000 0.000000 10.000000 
eye_right_bone 0.000000 0.000000 0.000000 0.000000 0.000000 0.000000 10.000000 
L_forearm 0.000000 0.000000 0.000000 0.000000 0.000000 0.000000 10.000000 
L_front_hand 0.000000 0.000000 0.000000 0.000000 0.000000 0.000000 10.000000 
L_weapon_bone 0.000000 0.000000 0.000000 0.000000 0.000000 0.000000 10.000000 
L_front_hand01_01 0.000000 0.000000 0.000000 0.000000 0.000000 0.000000 10.000000 
L_front_hand02_01 0.000000 0.000000 0.000000 0.000000 0.000000 0.000000 10.000000 
L_front_hand03_01 0.000000 0.000000 0.000000 0.000000 0.000000 0.000000 10.000000 
L_front_hand01_02 0.000000 0.000000 0.000000 0.000000 0.000000 0.000000 10.000000 
L_front_hand02_02 0.000000 0.000000 0.000000 0.000000 0.000000 0.000000 10.000000 
L_front_hand03_02 0.000000 0.000000 0.000000 0.000000 0.000000 0.000000 10.000000 
R_forearm 0.000000 0.000000 0.000000 0.000000 0.000000 0.000000 10.000000 
R_front_hand 0.000000 0.000000 0.000000 0.000000 0.000000 0.000000 10.000000 
R_weapon_bone 0.000000 0.000000 0.000000 0.000000 0.000000 0.000000 10.000000 
R_front_hand01_01 0.000000 0.000000 0.000000 0.000000 0.000000 0.000000 10.000000 
R_front_hand02_01 0.000000 0.000000 0.000000 0.000000 0.000000 0.000000 10.000000 
R_front_hand03_01 0.000000 0.000000 0.000000 0.000000 0.000000 0.000000 10.000000 
R_front_hand01_02 0.000000 0.000000 0.000000 0.000000 0.000000 0.000000 10.000000 
R_front_hand02_02 0.000000 0.000000 0.000000 0.000000 0.000000 0.000000 10.000000 
R_front_hand03_02 0.000000 0.000000 0.000000 0.000000 0.000000 0.000000 10.000000 
null_rope01_connect 0.000000 0.000000 0.000000 0.000000 0.000000 0.000000 10.000000 
Rope1_Seg01 0.000000 0.000000 0.000000 0.000000 0.000000 0.000000 10.000000 
Rope1_Seg02 0.000000 0.000000 0.000000 0.000000 0.000000 0.000000 10.000000 
Rope1_Seg03 0.000000 0.000000 0.000000 0.000000 0.000000 0.000000 10.000000 
Rope1_Seg04 0.000000 0.000000 0.000000 0.000000 0.000000 0.000000 10.000000 
Rope1_Seg05 0.000000 0.000000 0.000000 0.000000 0.000000 0.000000 10.000000 
Rope1_Seg06 0.000000 0.000000 0.000000 0.000000 0.000000 0.000000 10.000000 
Rope1_Seg07 0.000000 0.000000 0.000000 0.000000 0.000000 0.000000 10.000000 
Rope1_Seg09 0.000000 0.000000 0.000000 0.000000 0.000000 0.000000 10.000000 
L_mid_hand01 0.000000 0.000000 0.000000 0.000000 0.000000 0.000000 10.000000 
L_mid_hand02 0.000000 0.000000 0.000000 0.000000 0.000000 0.000000 10.000000 
L_mid_hand03 0.000000 0.000000 0.000000 0.000000 0.000000 0.000000 10.000000 
null_rope02_connect 0.000000 0.000000 0.000000 0.000000 0.000000 0.000000 10.000000 
Rope2_Seg01 0.000000 0.000000 0.000000 0.000000 0.000000 0.000000 10.000000 
Rope2_Seg02 0.000000 0.000000 0.000000 0.000000 0.000000 0.000000 10.000000 
Rope2_Seg03 0.000000 0.000000 0.000000 0.000000 0.000000 0.000000 10.000000 
Rope2_Seg04 0.000000 0.000000 0.000000 0.000000 0.000000 0.000000 10.000000 
Rope2_Seg05 0.000000 0.000000 0.000000 0.000000 0.000000 0.000000 10.000000 
Rope2_Seg06 0.000000 0.000000 0.000000 0.000000 0.000000 0.000000 10.000000 
Rope2_Seg07 0.000000 0.000000 0.000000 0.000000 0.000000 0.000000 10.000000 
Rope2_Seg09 0.000000 0.000000 0.000000 0.000000 0.000000 0.000000 10.000000 
R_mid_hand01 0.000000 0.000000 0.000000 0.000000 0.000000 0.000000 10.000000 
R_mid_hand02 0.000000 0.000000 0.000000 0.000000 0.000000 0.000000 10.000000 
R_mid_hand03 0.000000 0.000000 0.000000 0.000000 0.000000 0.000000 10.000000 
spine02 0.000000 0.000000 0.000000 0.000000 0.000000 0.000000 10.000000 
spine03 0.000000 0.000000 0.000000 0.000000 0.000000 0.000000 10.000000 
pelvis 0.000000 0.000000 0.000000 0.000000 0.000000 0.000000 10.000000 
null_rope03_connect 0.000000 0.000000 0.000000 0.000000 0.000000 0.000000 10.000000 
null_rope04_connect 0.000000 0.000000 0.000000 0.000000 0.000000 0.000000 10.000000 
Rope3_Seg01 0.000000 0.000000 0.000000 0.000000 0.000000 0.000000 10.000000 
Rope3_Seg02 0.000000 0.000000 0.000000 0.000000 0.000000 0.000000 10.000000 
Rope3_Seg03 0.000000 0.000000 0.000000 0.000000 0.000000 0.000000 10.000000 
Rope3_Seg04 0.000000 0.000000 0.000000 0.000000 0.000000 0.000000 10.000000 
Rope3_Seg05 0.000000 0.000000 0.000000 0.000000 0.000000 0.000000 10.000000 
Rope3_Seg06 0.000000 0.000000 0.000000 0.000000 0.000000 0.000000 10.000000 
Rope3_Seg07 0.000000 0.000000 0.000000 0.000000 0.000000 0.000000 10.000000 
Rope3_Seg08 0.000000 0.000000 0.000000 0.000000 0.000000 0.000000 10.000000 
Rope3_Seg09 0.000000 0.000000 0.000000 0.000000 0.000000 0.000000 10.000000 
R_rear_hand01 0.000000 0.000000 0.000000 0.000000 0.000000 0.000000 10.000000 
R_rear_hand02 0.000000 0.000000 0.000000 0.000000 0.000000 0.000000 10.000000 
R_rear_hand03 0.000000 0.000000 0.000000 0.000000 0.000000 0.000000 10.000000 
Rope4_Seg01 0.000000 0.000000 0.000000 0.000000 0.000000 0.000000 10.000000 
Rope4_Seg02 0.000000 0.000000 0.000000 0.000000 0.000000 0.000000 10.000000 
Rope4_Seg03 0.000000 0.000000 0.000000 0.000000 0.000000 0.000000 10.000000 
Rope4_Seg04 0.000000 0.000000 0.000000 0.000000 0.000000 0.000000 10.000000 
Rope4_Seg05 0.000000 0.000000 0.000000 0.000000 0.000000 0.000000 10.000000 
Rope4_Seg06 0.000000 0.000000 0.000000 0.000000 0.000000 0.000000 10.000000 
Rope4_Seg07 0.000000 0.000000 0.000000 0.000000 0.000000 0.000000 10.000000 
Rope4_Seg08 0.000000 0.000000 0.000000 0.000000 0.000000 0.000000 10.000000 
Rope4_Seg09 0.000000 0.000000 0.000000 0.000000 0.000000 0.000000 10.000000 
L_rear_hand01 0.000000 0.000000 0.000000 0.000000 0.000000 0.000000 10.000000 
L_rear_hand02 0.000000 0.000000 0.000000 0.000000 0.000000 0.000000 10.000000 
L_rear_hand03 0.000000 0.000000 0.000000 0.000000 0.000000 0.000000 10.000000 
#Beginning of Data. Separated by tabs
#Fr	Tx	Ty	Tz	Rx	Ry	Rz	SF
[MASTER]
21 0.000000 0.000000 0.000000 0.001660 0.001660 0.001660 0.000000
22 0.000000 0.000000 0.000000 0.001660 0.001660 0.001660 0.000000
[root]
21 -29.714428 -55.762737 5003.290039 -76.681274 -13.447914 -84.091011 5003.689453
22 -28.411270 -56.459007 5014.216797 -69.076622 -12.666897 -82.010620 5014.615234
[chest]
21 -84.512650 -34.090519 0.000000 -33.279842 -6.022210 178.258774 91.129311
22 -84.512650 -34.090519 0.000000 -35.881687 -0.824727 177.988174 91.129311
[L_mid_tent01]
21 27.299568 22.177727 -249.918213 5.892819 58.066391 84.068748 252.381119
22 27.299572 22.177731 -249.918213 6.581443 61.700077 84.864273 252.381119
[R_mid_tent01]
21 23.228794 24.509907 226.238495 160.432037 -47.061241 87.899765 228.744751
22 23.228794 24.509907 226.238495 160.432037 -47.061241 87.899765 228.744751
[spine01]
21 -0.361383 -0.195265 0.000000 0.002062 0.001122 32.879829 0.410763
22 -0.361383 -0.195265 0.000000 0.002062 0.001122 32.879829 0.410763
[Bip01_Neck]
21 165.484543 71.581718 0.000119 176.643677 -1.657967 43.431911 180.302734
22 165.484543 71.581718 0.000119 176.643677 -1.657967 43.431911 180.302734
[L_humerus]
21 -13.983130 -135.272980 -120.471481 156.317398 70.210068 -112.010254 181.680161
22 -13.983130 -135.272980 -120.471481 156.317398 70.210068 -112.010254 181.680161
[R_humerus]
21 -13.983309 -135.273102 125.287651 -175.753540 -61.209259 -88.410614 184.909012
22 -13.983309 -135.273102 125.287651 -177.060959 -51.040012 -86.597252 184.909012
[weapon_bone]
21 235.964890 -300.705902 0.000000 0.000000 -89.951546 -128.212341 382.234833
22 235.964890 -300.705902 0.000000 0.000000 -89.951546 -128.212341 382.234833
[Bip01_Head]
21 213.331879 186.028107 7.739738 28.642492 33.368034 -18.723589 283.155151
22 213.332886 186.025299 7.775814 27.191175 38.843811 -11.323731 283.155090
[eye_left_bone]
21 -24.626970 125.451866 -64.772606 0.000000 -90.000000 -99.840431 143.318359
22 -24.626970 125.451866 -64.772606 0.000000 -90.000000 -99.840431 143.318359
[eye_right_bone]
21 -24.626970 125.451866 64.327362 0.000000 -89.965736 80.156380 143.117676
22 -24.626970 125.451866 64.327362 0.000000 -89.965736 80.156380 143.117676
[L_forearm]
21 322.776093 0.000000 -0.000119 0.000119 -0.002344 -95.807457 322.776093
22 322.776093 0.000000 -0.000119 0.000119 -0.002344 -95.807457 322.776093
[L_front_hand]
21 241.149185 -0.042021 -3.300071 -178.667953 -1.835447 -27.422350 241.171753
22 241.149185 -0.042021 -3.300071 -178.667953 -1.835447 -27.422350 241.171753
[L_weapon_bone]
21 156.183838 0.000000 0.000000 0.000014 0.000007 0.000001 156.183838
22 156.183838 0.000000 0.000000 0.000014 0.000007 0.000001 156.183838
[L_front_hand01_01]
21 86.095154 20.947098 -0.655860 -0.306535 -0.513312 68.646957 88.609184
22 86.095154 20.947098 -0.655860 -0.314053 -0.508434 69.417068 88.609184
[L_front_hand02_01]
21 86.935165 -11.437475 24.513514 145.004044 -56.473930 -50.323578 91.046425
22 86.935165 -11.437475 24.513514 145.968994 -56.908306 -51.478981 91.046425
[L_front_hand03_01]
21 86.637497 -14.123976 -20.424902 -145.151382 54.687626 -52.198425 90.126129
22 86.637497 -14.123976 -20.424902 -146.055542 55.122986 -53.303135 90.126129
[L_front_hand01_02]
21 71.020905 -0.000179 0.000030 0.000317 -0.002326 -105.540344 71.020905
22 71.020905 -0.000179 0.000030 0.000318 -0.002326 -105.579170 71.020905
[L_front_hand02_02]
21 71.020927 -0.000119 0.000060 0.000317 -0.002326 -105.540344 71.020927
22 71.020927 -0.000119 0.000060 0.000318 -0.002326 -105.579170 71.020927
[L_front_hand03_02]
21 71.020905 -0.000060 0.000060 0.000317 -0.002326 -105.540344 71.020905
22 71.020905 -0.000060 0.000060 0.000318 -0.002326 -105.579170 71.020905
[R_forearm]
21 322.776428 -0.000060 0.000030 0.209504 0.012586 -94.339050 322.776428
22 322.776428 -0.000060 0.000030 0.209504 0.012586 -94.339050 322.776428
[R_front_hand]
21 238.847015 -0.006795 2.210259 -2.635298 -10.645461 -26.312506 238.857239
22 238.847015 -0.006795 2.210259 -2.635298 -10.645461 -26.312506 238.857239
[R_weapon_bone]
21 155.664093 0.002503 -0.000030 0.003487 0.001180 -90.988930 155.664078
22 155.664093 0.002503 -0.000030 0.003487 0.001180 -90.988930 155.664078
[R_front_hand01_01]
21 87.624611 14.231146 22.918642 -144.694336 -56.325737 50.060089 91.683487
22 87.624611 14.231146 22.918642 -146.552551 -57.155434 52.280739 91.683487
[R_front_hand02_01]
21 89.356956 14.367283 -19.491137 145.240677 54.711182 52.540722 92.579636
22 89.356956 14.367283 -19.491137 146.998062 55.533047 54.685268 92.579636
[R_front_hand03_01]
21 87.286232 -22.307278 -0.143439 0.105409 -0.441003 -68.629555 90.091743
22 87.286232 -22.307278 -0.143439 0.117983 -0.440813 -70.109184 90.091743
[R_front_hand01_02]
21 71.020905 0.000060 0.000119 0.002323 -0.000334 106.381714 71.020905
22 71.020905 0.000060 0.000119 0.002323 -0.000334 106.381714 71.020905
[R_front_hand02_02]
21 71.020844 -0.000030 -0.000119 0.002323 -0.000334 106.381714 71.020836
22 71.020844 -0.000030 -0.000119 0.002323 -0.000334 106.381714 71.020836
[R_front_hand03_02]
21 71.020905 0.000000 0.000030 0.002323 -0.000334 106.381714 71.020905
22 71.020905 0.000000 0.000030 0.002323 -0.000334 106.381714 71.020905
[null_rope01_connect]
21 328.732483 0.000000 -0.000238 -156.602722 -47.277397 179.834061 328.732483
22 328.732483 0.000000 -0.000238 -159.153732 -51.775246 -178.990784 328.732483
[Rope1_Seg01]
21 0.000035 -0.000076 -0.000264 97.232285 -18.599524 -167.932755 0.000277
22 0.000036 -0.000076 -0.000284 97.233635 -13.613692 -164.600693 0.000297
[Rope1_Seg02]
21 139.999863 -0.000179 0.000000 0.363003 -6.825980 5.164189 139.999863
22 139.999863 -0.000179 0.000000 0.059531 -6.413456 6.044337 139.999863
[Rope1_Seg03]
21 139.999924 0.000060 -0.000060 -0.676456 -13.256355 10.410867 139.999924
22 139.999924 0.000060 -0.000060 -0.715219 -11.201141 10.841672 139.999924
[Rope1_Seg04]
21 139.999924 -0.000060 -0.000119 -10.573933 -32.541958 22.029411 139.999924
22 139.999924 -0.000060 -0.000119 -5.153378 -24.488922 19.619928 139.999924
[Rope1_Seg05]
21 139.999832 0.000119 -0.000060 1.526556 -12.456068 18.616936 139.999832
22 139.999832 0.000119 -0.000060 -0.909339 -13.756429 18.644253 139.999832
[Rope1_Seg06]
21 139.999954 0.000119 -0.000060 16.958540 5.677717 8.865500 139.999954
22 139.999954 0.000119 -0.000060 11.247236 5.657859 8.835889 139.999954
[Rope1_Seg07]
21 139.999985 0.000060 0.000000 6.790240 1.091856 4.521754 139.999985
22 139.999985 0.000060 0.000000 5.225148 1.756026 4.772090 139.999985
[Rope1_Seg09]
21 121.602913 0.000119 -0.000089 -89.793175 -1.359789 0.847147 121.602913
22 121.602913 0.000119 -0.000089 -89.793175 -1.359789 0.847147 121.602913
[L_mid_hand01]
21 103.859421 1.038730 8.195221 130.544373 -67.584534 -38.866943 104.187431
22 103.859421 1.038730 8.195221 130.544373 -67.584534 -38.866943 104.187431
[L_mid_hand02]
21 105.572853 -4.139662 -10.864139 -168.923172 43.409309 -73.498886 106.211075
22 105.572853 -4.139662 -10.864139 -168.923172 43.409309 -73.498886 106.211075
[L_mid_hand03]
21 104.641464 17.579376 -3.913581 -6.012627 17.808174 74.893669 106.179977
22 104.641464 17.579376 -3.913581 -6.012627 17.808174 74.893669 106.179977
[null_rope02_connect]
21 328.732849 0.000179 -0.000119 -140.244339 24.255806 15.417387 328.732849
22 328.732849 0.000179 -0.000119 -142.495895 16.214563 13.750875 328.732849
[Rope2_Seg01]
21 -0.000173 0.000108 0.000014 -64.779526 23.613403 -1.304716 0.000205
22 -0.000182 0.000106 0.000007 -55.341911 16.158754 1.778215 0.000211
[Rope2_Seg02]
21 139.999741 -0.000060 -0.000119 11.740786 -20.846220 -5.435926 139.999756
22 139.999741 -0.000060 -0.000119 11.072258 -25.495590 -5.327487 139.999756
[Rope2_Seg03]
21 140.000107 0.000030 0.000000 4.984432 -31.731174 -1.534067 140.000107
22 140.000107 0.000030 0.000000 2.358753 -33.103310 -0.100744 140.000107
[Rope2_Seg04]
21 139.999802 0.000000 -0.000060 -1.055780 -21.673307 0.999445 139.999802
22 139.999802 0.000000 -0.000060 -2.052762 -19.216881 1.141900 139.999802
[Rope2_Seg05]
21 139.999985 -0.000060 0.000119 -2.067822 -10.427983 -1.488534 139.999985
22 139.999985 -0.000060 0.000119 -2.325922 -8.019012 -1.456874 139.999985
[Rope2_Seg06]
21 139.999893 -0.000030 -0.000119 -5.316576 -13.535200 -4.384157 139.999893
22 139.999893 -0.000030 -0.000119 -4.286170 -7.452058 -4.238456 139.999893
[Rope2_Seg07]
21 139.999893 0.000060 -0.000060 -9.943122 -15.571716 -5.518557 139.999893
22 139.999893 0.000060 -0.000060 -6.272189 -9.176803 -4.847998 139.999893
[Rope2_Seg09]
21 121.338966 0.000089 -0.000060 33.793236 -1.359788 -0.847141 121.338966
22 121.338966 0.000089 -0.000060 33.793236 -1.359788 -0.847141 121.338966
[R_mid_hand01]
21 104.680779 11.144459 -10.335981 -16.212063 45.237247 70.462852 105.778534
22 104.680779 11.144459 -10.335981 -16.212063 45.237247 70.462852 105.778534
[R_mid_hand02]
21 104.070427 2.443552 8.231699 49.067368 -67.749771 39.286453 104.424065
22 104.070427 2.443552 8.231699 49.067368 -67.749771 39.286453 104.424065
[R_mid_hand03]
21 106.028137 -11.221827 -5.996406 -177.101105 15.551026 -76.585571 106.788818
22 106.028137 -11.221827 -5.996406 -177.101105 15.551026 -76.585571 106.788818
[spine02]
21 129.756927 0.001550 0.000119 -1.023899 -3.926965 6.770993 129.756927
22 129.756927 0.001550 0.000119 -1.023899 -3.926965 6.770993 129.756927
[spine03]
21 78.613892 0.087558 -4.898838 1.040681 4.146420 4.212376 78.766426
22 78.613892 0.087572 -4.898836 1.040681 4.146420 4.212376 78.766426
[pelvis]
21 169.435242 0.051022 0.000000 0.019518 -0.190233 -10.721436 169.435257
22 169.435242 0.051022 0.000000 0.019518 -0.190233 -10.721436 169.435257
[null_rope03_connect]
21 -1.257226 -2.466202 137.391083 35.193386 -74.460426 34.546745 137.418976
22 -1.257226 -2.466202 137.391083 31.262794 -66.308929 36.938236 137.418976
[null_rope04_connect]
21 -1.259640 -2.480268 -137.844437 35.193386 -74.460426 34.546745 137.872513
22 -1.259640 -2.480268 -137.844437 31.262794 -66.308929 36.938236 137.872513
[Rope3_Seg01]
21 0.000069 -0.000040 0.000277 -139.811707 -46.512768 -71.572693 0.000289
22 0.000073 -0.000039 0.000291 -138.113235 -50.424774 -75.333099 0.000303
[Rope3_Seg02]
21 139.999924 -0.000119 0.000060 -0.802180 -4.543993 -12.828050 139.999924
22 139.999924 -0.000119 0.000060 -1.463067 -1.881850 -11.584398 139.999924
[Rope3_Seg03]
21 139.999924 -0.000119 0.000119 -1.798423 -4.195813 -11.947354 139.999924
22 139.999924 -0.000119 0.000119 -2.798170 -1.738601 -11.752282 139.999924
[Rope3_Seg04]
21 139.999924 0.000119 0.000000 -2.100010 -3.778702 -9.581528 139.999924
22 139.999924 0.000119 0.000000 -3.514030 -2.645488 -11.364203 139.999924
[Rope3_Seg05]
21 139.999924 -0.000238 0.000060 -4.555038 -0.632741 -6.718523 139.999924
22 139.999924 -0.000238 0.000060 -5.563127 0.913845 -7.152954 139.999924
[Rope3_Seg06]
21 139.999893 -0.000119 -0.000060 -10.830683 2.454722 -7.410973 139.999893
22 139.999893 -0.000119 -0.000060 -8.941708 5.523256 -4.722594 139.999893
[Rope3_Seg07]
21 139.999771 0.000060 -0.000119 -18.252527 4.370206 -8.893307 139.999771
22 139.999771 0.000060 -0.000119 -10.904368 7.775415 -4.686143 139.999771
[Rope3_Seg08]
21 139.999985 -0.000060 0.000000 -18.763599 5.727391 -6.568714 139.999985
22 139.999985 -0.000060 0.000000 -8.543295 6.749687 -3.648214 139.999985
[Rope3_Seg09]
21 90.185997 -0.000179 -0.000060 89.793228 -1.359877 -0.847183 90.185997
22 90.185997 -0.000179 -0.000060 89.793228 -1.359877 -0.847183 90.185997
[R_rear_hand01]
21 103.366196 -6.073594 -10.757982 -177.714203 24.565960 -73.910950 104.101845
22 103.366196 -6.073594 -10.757982 -177.714203 24.565960 -73.910950 104.101845
[R_rear_hand02]
21 100.509819 12.039542 -7.992327 -12.874829 36.868488 72.167213 101.543350
22 100.509819 12.039542 -7.992327 -12.874829 36.868488 72.167213 101.543350
[R_rear_hand03]
21 101.539970 5.215704 5.435467 71.484581 -71.816628 21.513813 101.819031
22 101.539970 5.215704 5.435467 71.484581 -71.816628 21.513813 101.819031
[Rope4_Seg01]
21 0.000035 -0.000007 -0.000291 54.670673 -21.337996 -116.762085 0.000293
22 0.000036 -0.000003 -0.000298 54.876522 -20.234598 -118.783150 0.000300
[Rope4_Seg02]
21 139.999985 0.000060 0.000119 3.229869 -12.863478 2.012632 139.999985
22 139.999985 0.000060 0.000119 4.495284 -11.496532 6.966080 139.999985
[Rope4_Seg03]
21 139.999924 0.000000 -0.000238 8.134851 -17.364965 3.764321 139.999924
22 139.999924 0.000000 -0.000238 7.741648 -12.826509 9.429458 139.999924
[Rope4_Seg04]
21 139.999985 0.000000 0.000119 15.306604 -16.715860 6.102949 139.999985
22 139.999985 0.000000 0.000119 10.029735 -11.076517 10.557989 139.999985
[Rope4_Seg05]
21 139.999802 -0.000060 -0.000119 24.547232 -13.297930 11.442786 139.999802
22 139.999802 -0.000060 -0.000119 8.872982 -5.899800 9.734517 139.999802
[Rope4_Seg06]
21 139.999924 0.000000 0.000060 27.140568 -7.394804 18.947617 139.999924
22 139.999924 0.000000 0.000060 7.846210 -2.903027 9.896983 139.999924
[Rope4_Seg07]
21 139.999802 0.000000 0.000000 13.074588 1.354575 14.301564 139.999802
22 139.999802 0.000000 0.000000 6.397112 -1.602915 9.131277 139.999802
[Rope4_Seg08]
21 139.999924 0.000000 0.000119 3.657888 2.570006 7.785929 139.999924
22 139.999924 0.000000 0.000119 2.378605 -0.461970 6.337087 139.999924
[Rope4_Seg09]
21 90.185791 0.000060 0.000060 -135.617828 2.228885 0.850567 90.185791
22 90.185791 0.000060 0.000060 -135.617828 2.228885 0.850567 90.185791
[L_rear_hand01]
21 101.696655 -8.392275 -7.654577 -12.874829 -36.868488 107.832764 102.329041
22 101.696655 -8.392275 -7.654577 -12.874829 -36.868488 107.832764 102.329041
[L_rear_hand02]
21 102.726799 -1.568258 5.773216 71.484581 71.816628 158.486160 102.900848
22 102.726799 -1.568258 5.773216 71.484581 71.816628 158.486160 102.900848
[L_rear_hand03]
21 104.552910 9.721220 -10.420293 -177.714203 -24.565960 -106.089035 105.519653
22 104.552910 9.721220 -10.420293 -177.714203 -24.565960 -106.089035 105.519653
